<svg version="1.2" baseProfile="tiny-ps" xmlns="http://www.w3.org/2000/svg" viewBox="1155.71 771.21 470.58 470.58">
    <style>
        tspan { white-space:pre }
        .shp0 { fill: #18aa5e }
        .shp1 { fill: #2a8072 }
        .shp2 { fill: #0d4451 }
        .shp3 { fill: #ffffff }
    </style>
    <g id="&lt;Group&gt;">
        <path id="&lt;Path&gt;" class="shp0" d="M1170.65 1086.2C1195.34 1086.21 1220.03 1086.03 1244.72 1086.35C1255.58 1086.49 1265.76 1089.58 1273.35 1097.96C1276.66 1101.62 1279.03 1106.12 1281.93 1110.16C1301.66 1137.66 1328.12 1155.02 1361.33 1161.37C1385.72 1166.03 1409.7 1163.65 1432.79 1154.05C1457.75 1143.66 1477.27 1126.84 1491.64 1104.05C1495.88 1097.33 1500.75 1091.42 1508.46 1088.74C1511.95 1087.52 1515.7 1086.39 1519.33 1086.37C1550.17 1086.16 1581.01 1086.22 1611.85 1086.21C1612.02 1086.21 1612.19 1086.24 1612.41 1086.28C1621.39 1061.37 1626.29 1034.51 1626.29 1006.5C1626.29 876.55 1520.95 771.21 1391 771.21C1261.05 771.21 1155.71 876.55 1155.71 1006.5C1155.71 1034.53 1160.62 1061.41 1169.61 1086.34C1169.96 1086.27 1170.31 1086.2 1170.65 1086.2Z" />
        <path id="&lt;Path&gt;" class="shp1" d="M1524.04 1102.23C1519.17 1102.23 1514.34 1102.46 1510.49 1105.93C1508.93 1107.34 1507.5 1109.01 1506.4 1110.8C1489.94 1137.74 1467.19 1157.35 1437.97 1169.26C1416.51 1178.01 1394.12 1181.12 1371.02 1178.89C1344.43 1176.31 1320.43 1166.99 1299.17 1150.88C1285.93 1140.85 1274.28 1129.1 1265.82 1114.77C1260.4 1105.59 1252.64 1102.34 1242.76 1102.3C1225.56 1102.24 1208.36 1102.25 1191.15 1102.24C1186.1 1102.23 1181.06 1102.24 1176.01 1102.23C1212.68 1184.47 1295.15 1241.79 1391 1241.79C1486.85 1241.79 1569.32 1184.47 1605.99 1102.24C1578.67 1102.24 1551.36 1102.24 1524.04 1102.23Z" />
        <path id="&lt;Path&gt;" class="shp3" d="M1611.85 1086.48C1581.01 1086.49 1550.17 1086.43 1519.33 1086.64C1515.7 1086.66 1511.95 1087.79 1508.46 1089C1500.75 1091.69 1495.88 1097.6 1491.64 1104.31C1477.27 1127.11 1457.75 1143.93 1432.79 1154.31C1409.7 1163.92 1385.72 1166.3 1361.33 1161.63C1328.12 1155.29 1301.66 1137.93 1281.93 1110.43C1279.03 1106.39 1276.66 1101.89 1273.35 1098.23C1265.76 1089.85 1255.58 1086.76 1244.72 1086.62C1220.03 1086.3 1195.34 1086.48 1170.65 1086.47C1170.23 1086.47 1169.81 1086.57 1169.38 1086.65C1171.33 1092.03 1173.47 1097.31 1175.79 1102.5C1180.91 1102.5 1186.03 1102.5 1191.15 1102.51C1208.36 1102.52 1225.56 1102.51 1242.76 1102.57C1252.64 1102.6 1260.4 1105.86 1265.82 1115.04C1274.28 1129.37 1285.93 1141.12 1299.17 1151.15C1320.43 1167.26 1344.43 1176.58 1371.02 1179.15C1394.12 1181.39 1416.51 1178.28 1437.97 1169.53C1467.19 1157.61 1489.94 1138.01 1506.4 1111.07C1507.5 1109.28 1508.93 1107.61 1510.49 1106.2C1514.34 1102.73 1519.17 1102.5 1524.04 1102.5C1551.2 1102.51 1578.37 1102.5 1605.53 1102.5C1607.88 1097.26 1610.04 1091.92 1612 1086.49C1611.95 1086.48 1611.9 1086.48 1611.85 1086.48Z" />
        <path id="&lt;Compound Path&gt;" fill-rule="evenodd" class="shp3" d="M1587.53 966.11C1573.64 991.82 1556.47 1015.02 1534.52 1034.44C1522.22 1045.32 1508.55 1054.17 1493.03 1059.86C1481.65 1064.03 1469.87 1066.13 1457.69 1065.68C1442.83 1065.14 1428.96 1060.98 1415.8 1054.25C1414.4 1053.54 1412.88 1052.15 1411.63 1052.36C1410.38 1052.56 1409.36 1054.34 1408.3 1055.49C1398.18 1066.51 1390.36 1078.85 1387.22 1093.69C1386.46 1097.29 1386.32 1101.05 1386.16 1104.74C1385.98 1108.93 1383.37 1111.82 1379.58 1111.65C1375.61 1111.48 1373.28 1108.44 1373.4 1104.17C1373.68 1094.42 1372.14 1084.88 1369.56 1075.49C1365.6 1061.07 1359.11 1047.87 1350.63 1035.6C1350.52 1035.45 1350.41 1035.3 1350.3 1035.16C1346.9 1037.37 1343.65 1039.61 1340.27 1041.65C1332.79 1046.18 1324.8 1049.43 1316.16 1051.07C1303.03 1053.56 1290.46 1051.64 1278.37 1046.29C1265.44 1040.57 1254.69 1031.82 1244.95 1021.71C1228.65 1004.82 1216.27 985.22 1205.39 964.59C1198.49 951.5 1192.38 938.04 1187.09 924.21C1185.06 918.9 1186.59 915.78 1191.97 914.11C1204.29 910.3 1216.69 906.81 1229.4 904.57C1243.33 902.12 1257.34 900.65 1271.5 901.66C1290.14 903 1307.51 908 1322.54 919.62C1331.09 926.22 1337.81 934.4 1343.15 943.74C1350.98 957.43 1355.14 972.29 1357.11 987.86C1358.57 999.41 1358.84 1010.95 1357.91 1022.55C1357.84 1023.44 1358.25 1024.53 1358.78 1025.28C1366.49 1036.02 1372.95 1047.44 1377.6 1059.84C1378.98 1063.54 1380.19 1067.31 1381.59 1071.37C1382.56 1069.64 1383.42 1068.05 1384.33 1066.5C1389.4 1057.87 1395.45 1050.01 1402.65 1043.04C1403.53 1042.19 1403.83 1041.39 1403.72 1040.1C1402.01 1019.74 1405.55 1000.56 1417.16 983.39C1424.47 972.57 1434.26 964.48 1445.94 958.69C1457.5 952.95 1469.79 949.77 1482.54 948.07C1498.18 946 1513.82 946.33 1529.48 947.67C1547.57 949.21 1565.36 952.5 1583.03 956.51C1587.67 957.57 1589.76 961.98 1587.53 966.11ZM1346.12 1009.04C1345.61 1002.59 1345.27 996.12 1344.57 989.69C1343.3 978.05 1340.41 966.81 1335.43 956.18C1330.43 945.54 1323.68 936.26 1314.19 929.11C1300.81 919.04 1285.44 914.96 1269.03 914.13C1258.43 913.59 1247.9 914.34 1237.41 915.96C1225.02 917.87 1212.9 920.85 1200.71 924.51C1201.46 926.28 1202.12 927.84 1202.78 929.4C1213.38 954.41 1226 978.3 1242.61 999.9C1251.79 1011.85 1262.18 1022.62 1275.18 1030.56C1282.78 1035.2 1290.93 1038.35 1299.87 1039.31C1309.87 1040.37 1319.33 1038.34 1328.21 1033.88C1333.17 1031.38 1337.81 1028.24 1342.74 1025.31C1342.07 1024.44 1341.75 1023.98 1341.39 1023.56C1333.25 1014.22 1324.28 1005.77 1314.41 998.28C1298.32 986.07 1280.82 976.32 1262.32 968.31C1258.59 966.69 1257.05 963.21 1258.45 959.9C1259.88 956.52 1263.58 955.18 1267.34 956.81C1296.13 969.32 1322.53 985.42 1344.43 1008.27C1344.78 1008.63 1345.19 1008.93 1345.57 1009.26C1345.75 1009.19 1345.94 1009.12 1346.12 1009.04ZM1572.64 967.26C1571.9 967 1571.46 966.77 1570.99 966.69C1559.15 964.75 1547.34 962.58 1535.46 960.96C1520.57 958.94 1505.6 958.44 1490.6 959.8C1479.08 960.85 1467.82 962.99 1457.08 967.42C1444.87 972.46 1434.55 979.94 1427.11 991.03C1420.04 1001.55 1416.93 1013.36 1416.05 1025.86C1415.93 1027.49 1416.03 1029.14 1416.03 1031.07C1418.83 1029.02 1421.32 1027.11 1423.91 1025.33C1447.95 1008.78 1474.55 997.75 1502.25 989.13C1504.15 988.54 1506.12 988.52 1507.89 989.7C1509.94 991.05 1511.08 993.02 1510.85 995.45C1510.62 997.9 1509.37 999.89 1506.9 1000.75C1503.57 1001.91 1500.21 1002.96 1496.88 1004.08C1476.12 1011.08 1456.02 1019.53 1437.57 1031.47C1432.08 1035.02 1426.85 1038.95 1421.09 1043C1428.66 1046.6 1435.78 1049.53 1443.38 1051.23C1458.54 1054.61 1473.38 1053.47 1487.95 1048.25C1504.39 1042.37 1518.21 1032.39 1530.81 1020.57C1542.81 1009.32 1553.14 996.63 1562.44 983.09C1565.97 977.97 1569.19 972.63 1572.64 967.26Z" />
    </g>
</svg>
