<?xml version="1.0" encoding="UTF-8" standalone="no"?>
<svg
   xmlns="http://www.w3.org/2000/svg"
   version="1.1"
   id="svg2"
   xml:space="preserve"
   width="1600"
   height="1600"
   viewBox="111.51 482.33 1352.78 568.86"><defs
     id="defs6"><clipPath
       id="clipPath18"><path
         d="M 0,1200 H 1200 V 0 H 0 Z"
         id="path16" /></clipPath></defs><g
     id="g10"
     transform="matrix(1.3333333,0,0,-1.3333333,0,1600)"><g
       id="g12"><g
         id="g14"
         clip-path="url(#clipPath18)"><g
           id="g20"
           transform="translate(161.0142,420.084)"><path
             d="m 0,0 c -11.313,0 -16.957,5.473 -16.957,16.429 v 176.489 h -43.99 c -10.961,0 -16.433,5.477 -16.433,16.433 v 31.269 c 0,10.948 5.472,16.428 16.433,16.428 h 43.99 v 46.112 c 0,34.98 11.133,62.889 33.39,83.739 22.257,20.845 51.936,31.271 89.037,31.271 9.544,0 18.022,-0.713 25.444,-2.12 8.479,-1.415 12.714,-6.541 12.714,-15.37 v -37.629 c 0,-5.656 -0.885,-9.278 -2.646,-10.866 -1.77,-1.59 -4.596,-2.212 -8.479,-1.856 -1.065,0 -2.744,0.086 -5.038,0.266 -2.301,0.172 -4.153,0.266 -5.562,0.266 -18.374,0 -32.776,-4.333 -43.195,-12.988 C 68.279,329.214 63.069,317.287 63.069,302.1 v -45.052 h 64.134 c 10.944,0 16.425,-5.48 16.425,-16.428 v -31.269 c 0,-10.956 -5.481,-16.433 -16.425,-16.433 H 63.069 V 16.429 C 63.069,5.473 57.589,0 46.645,0 Z"
             style="fill:#0d4451;fill-opacity:1;fill-rule:nonzero;stroke:none"
             id="path22" /></g><g
           id="g24"
           transform="translate(340.1538,420.084)"><path
             d="M 0,0 C -10.961,0 -16.433,5.473 -16.433,16.429 V 240.62 c 0,10.948 5.472,16.428 16.433,16.428 h 45.047 c 11.305,0 16.965,-5.48 16.965,-16.428 v -14.312 h 1.057 c 15.188,26.145 38.338,39.223 69.434,39.223 5.644,0 10.068,-0.184 13.247,-0.532 9.543,-1.057 14.311,-6.89 14.311,-17.49 v -39.747 c 0,-3.895 -0.271,-6.893 -0.795,-9.011 -0.533,-2.122 -1.778,-3.629 -3.711,-4.505 -1.95,-0.885 -3.539,-1.328 -4.767,-1.328 -1.246,0 -3.802,0.086 -7.693,0.267 -3.891,0.176 -7.069,0.266 -9.535,0.266 -21.914,0 -39.141,-6.541 -51.674,-19.611 C 69.336,160.766 63.069,142.387 63.069,118.721 V 16.429 C 63.069,5.473 57.589,0 46.636,0 Z"
             style="fill:#0d4451;fill-opacity:1;fill-rule:nonzero;stroke:none"
             id="path26" /></g><g
           id="g28"
           transform="translate(761.502,444.7295)"><path
             d="m 0,0 c -25.092,-22.086 -58.13,-33.124 -99.113,-33.124 -40.992,0 -74.022,11.038 -99.105,33.124 -25.1,22.077 -37.634,51.146 -37.634,87.186 v 128.788 c 0,10.948 5.472,16.429 16.433,16.429 h 46.636 c 10.953,0 16.433,-5.481 16.433,-16.429 V 94.604 c 0,-18.018 5.21,-32.51 15.63,-43.458 10.42,-10.957 24.289,-16.433 41.607,-16.433 17.309,0 31.177,5.476 41.606,16.433 10.42,10.948 15.638,25.44 15.638,43.458 v 121.37 c 0,10.948 5.473,16.429 16.425,16.429 H 21.2 c 10.945,0 16.425,-5.481 16.425,-16.429 V 87.186 C 37.625,51.146 25.083,22.077 0,0"
             style="fill:#0d4451;fill-opacity:1;fill-rule:nonzero;stroke:none"
             id="path30" /></g><g
           id="g32"
           transform="translate(833.5742,420.084)"><path
             d="m 0,0 c -6.718,0 -10.953,1.937 -12.723,5.828 -1.769,3.888 -0.713,8.484 3.187,13.783 L 73.145,128.788 -9.012,237.441 c -3.89,5.3 -4.857,9.888 -2.916,13.779 1.942,3.883 6.103,5.828 12.46,5.828 h 56.18 c 7.766,0 14.311,-3.359 19.611,-10.068 l 49.29,-65.19 50.348,65.719 c 4.243,6.361 10.6,9.539 19.078,9.539 h 55.656 c 6.701,0 11.034,-1.945 12.984,-5.828 1.933,-3.891 0.795,-8.479 -3.449,-13.779 L 177.55,128.26 260.763,19.611 c 3.883,-5.299 4.849,-9.895 2.916,-13.783 C 261.729,1.937 257.396,0 250.695,0 H 198.75 c -7.773,0 -14.311,3.179 -19.611,9.539 L 126.138,80.03 72.08,9.539 C 67.132,3.179 60.595,0 52.469,0 Z"
             style="fill:#0d4451;fill-opacity:1;fill-rule:nonzero;stroke:none"
             id="path34" /></g></g></g></g></svg>
